<svg preserveAspectRatio="none" width="100%" height="100%" overflow="visible" style="display: block;" viewBox="0 0 26 26" fill="none" xmlns="http://www.w3.org/2000/svg">
<g id="PokeHeart">
<path id="Vector" d="M22.5767 4.99417C22.0233 4.44059 21.3664 4.00145 20.6433 3.70184C19.9202 3.40223 19.1452 3.24802 18.3625 3.24802C17.5798 3.24802 16.8048 3.40223 16.0817 3.70184C15.3586 4.00145 14.7017 4.44059 14.1483 4.99417L13 6.1425L11.8517 4.99417C10.734 3.8765 9.21812 3.2486 7.6375 3.2486C6.05688 3.2486 4.541 3.8765 3.42333 4.99417C2.30567 6.11183 1.67777 7.62771 1.67777 9.20833C1.67777 10.789 2.30567 12.3048 3.42333 13.4225L4.57167 14.5708L13 22.9992L21.4283 14.5708L22.5767 13.4225C23.1302 12.8692 23.5694 12.2122 23.869 11.4891C24.1686 10.7661 24.3228 9.99103 24.3228 9.20833C24.3228 8.42564 24.1686 7.65061 23.869 6.92753C23.5694 6.20445 23.1302 5.54749 22.5767 4.99417V4.99417Z" fill="var(--fill-0, #FD525C)" stroke="var(--stroke-0, #173EA5)" stroke-width="1.5" stroke-linecap="round" stroke-linejoin="round"/>
</g>
</svg>
