<svg preserveAspectRatio="none" width="100%" height="100%" overflow="visible" style="display: block;" viewBox="0 0 23.1667 23.1667" fill="none" xmlns="http://www.w3.org/2000/svg">
<g id="Group">
<path id="Vector" d="M11.5833 22.4167C17.5666 22.4167 22.4167 17.5666 22.4167 11.5833C22.4167 5.60008 17.5666 0.75 11.5833 0.75C5.60008 0.75 0.75 5.60008 0.75 11.5833C0.75 17.5666 5.60008 22.4167 11.5833 22.4167Z" stroke="var(--stroke-0, #808080)" stroke-width="1.5" stroke-linecap="round" stroke-linejoin="round"/>
<path id="Vector_2" d="M11.583 14.8335C12.445 14.8335 13.2716 14.4911 13.8811 13.8816C14.4906 13.2721 14.833 12.4455 14.833 11.5835C14.833 10.7215 14.4906 9.89489 13.8811 9.2854C13.2716 8.67591 12.445 8.3335 11.583 8.3335C10.7211 8.3335 9.8944 8.67591 9.28491 9.2854C8.67542 9.89489 8.33301 10.7215 8.33301 11.5835C8.33301 12.4455 8.67542 13.2721 9.28491 13.8816C9.8944 14.4911 10.7211 14.8335 11.583 14.8335V14.8335Z" stroke="var(--stroke-0, #808080)" stroke-width="1.5" stroke-linecap="round" stroke-linejoin="round"/>
<path id="Vector_3" d="M0.75 11.5835H8.33333M14.8333 11.5835H22.4167" stroke="var(--stroke-0, #808080)" stroke-width="1.5"/>
</g>
</svg>
