<svg preserveAspectRatio="none" width="100%" height="100%" overflow="visible" style="display: block;" viewBox="0 0 26 26" fill="none" xmlns="http://www.w3.org/2000/svg">
<g id="PokePin">
<path id="Vector 36" d="M13 24.9167C3.79167 16.7917 4.33333 14.625 3.25 10.8333H22.75C22.75 15.7083 18.4167 21.6667 13 24.9167Z" fill="var(--fill-0, white)"/>
<path id="Vector 35" d="M22.75 10.8333H3.25C3.43056 7.94445 5.41667 1.625 13 1.08333C20.0417 1.08333 22.5694 7.58334 22.75 10.8333Z" fill="var(--fill-0, #CD3131)"/>
<circle id="Ellipse 426" cx="13" cy="10.8333" r="3.25" fill="var(--fill-0, white)"/>
<path id="Vector" d="M22.75 10.8333C22.75 18.4167 13 24.9167 13 24.9167C13 24.9167 3.25 18.4167 3.25 10.8333C3.25 8.24747 4.27723 5.76752 6.10571 3.93904C7.93419 2.11056 10.4141 1.08333 13 1.08333C15.5859 1.08333 18.0658 2.11056 19.8943 3.93904C21.7228 5.76752 22.75 8.24747 22.75 10.8333Z" stroke="var(--stroke-0, #173EA5)" stroke-width="1.5" stroke-linecap="round" stroke-linejoin="round"/>
<path id="Vector_2" d="M13 14.0833C13.862 14.0833 14.6886 13.7409 15.2981 13.1314C15.9076 12.5219 16.25 11.6953 16.25 10.8333C16.25 9.97138 15.9076 9.14473 15.2981 8.53524C14.6886 7.92574 13.862 7.58333 13 7.58333C12.138 7.58333 11.3114 7.92574 10.7019 8.53524C10.0924 9.14473 9.75 9.97138 9.75 10.8333C9.75 11.6953 10.0924 12.5219 10.7019 13.1314C11.3114 13.7409 12.138 14.0833 13 14.0833V14.0833Z" fill="var(--fill-0, white)" stroke="var(--stroke-0, #173EA5)" stroke-width="1.625" stroke-linecap="round" stroke-linejoin="round"/>
<path id="Vector_3" d="M3.25 10.8333L10.075 10.8333M15.925 10.8333L22.75 10.8333" stroke="var(--stroke-0, #173EA5)" stroke-width="1.625"/>
</g>
</svg>
